<?xml version="1.0" encoding="iso-8859-1"?>
<!-- Generator: Adobe Illustrator 21.0.0, SVG Export Plug-In . SVG Version: 6.00 Build 0)  -->
<svg xmlns="http://www.w3.org/2000/svg" xmlns:xlink="http://www.w3.org/1999/xlink" version="1.1" id="Capa_1" x="0px" y="0px" viewBox="0 0 512 512" style="enable-background:new 0 0 512 512;" xml:space="preserve" width="512" height="512">
<g>
	<path d="M256,512c98.07,0,256-38.487,256-135c0,0,0-60,0-60c0-61.54-70.719-100.32-129.942-117.791   C358.262,164.289,298.815,152,256,152c-43.157,0-102.394,12.482-126.058,47.209C70.619,216.709,0,255.508,0,317v60   C0,473.361,157.553,512,256,512z M256,482c-91.522,0-218.712-34.516-225.746-100.324C82.919,433.438,181.32,452,256,452   c74.497,0,173.043-18.526,225.746-70.324C474.179,452.476,334.753,482,256,482z M151,275.029C179.98,294.618,221.123,302,256,302   c34.863,0,76.012-7.377,105-26.971V317c0,21.242-44.904,45-105,45s-105-23.758-105-45V275.029z M256,182   c58.735,0,105,23.229,105,45c0,21.242-44.904,45-105,45s-105-23.758-105-45C151,205.512,196.473,182,256,182z M121,233.658V317   c0,22.005,15.427,41.837,43.438,55.843C189.146,385.197,221.663,392,256,392s66.854-6.803,91.562-19.157   C375.573,358.837,391,339.005,391,317v-83.342c55.99,20.107,91,51.604,91,83.342c0,73.911-147.444,105-226,105   c-82.106,0-226-32.604-226-105C30,285.263,65.01,253.765,121,233.658z"/>
	<path d="M245.394,117.607C248.322,120.536,252.161,122,256,122s7.678-1.464,10.606-4.393l30-30c5.858-5.858,5.858-15.355,0-21.213   c-5.857-5.858-15.355-5.858-21.213,0L271,70.787V15c0-8.284-6.716-15-15-15s-15,6.716-15,15v55.787l-4.394-4.394   c-5.857-5.858-15.355-5.858-21.213,0c-5.858,5.858-5.858,15.355,0,21.213L245.394,117.607z"/>
</g>















</svg>
