<svg id="svg" version="1.1" xmlns="http://www.w3.org/2000/svg" xmlns:xlink="http://www.w3.org/1999/xlink" width="400" height="400" viewBox="0, 0, 400,400"><g id="svgg"><path id="path3" d="" stroke="none" fill="#b00444" fill-rule="evenodd"></path><path id="path4" d="M266.380 186.639 L 265.260 187.811 266.432 186.691 C 267.077 186.076,267.604 185.548,267.604 185.519 C 267.604 185.381,267.419 185.550,266.380 186.639 M262.722 190.483 L 261.697 191.561 262.775 190.536 C 263.777 189.584,263.940 189.405,263.800 189.405 C 263.771 189.405,263.286 189.890,262.722 190.483 M259.066 194.327 L 257.947 195.499 259.119 194.380 C 260.207 193.340,260.376 193.155,260.238 193.155 C 260.209 193.155,259.681 193.683,259.066 194.327 M229.999 224.895 L 228.880 226.067 230.052 224.947 C 231.140 223.908,231.309 223.722,231.171 223.722 C 231.142 223.722,230.614 224.250,229.999 224.895 M226.341 228.739 L 225.316 229.817 226.395 228.792 C 227.397 227.840,227.559 227.661,227.420 227.661 C 227.390 227.661,226.905 228.146,226.341 228.739 M222.685 232.583 L 221.566 233.755 222.738 232.636 C 223.383 232.020,223.910 231.493,223.910 231.464 C 223.910 231.325,223.725 231.494,222.685 232.583 M219.409 236.006 C 218.954 236.470,218.623 236.850,218.675 236.850 C 218.726 236.850,219.141 236.470,219.597 236.006 C 220.052 235.541,220.383 235.162,220.331 235.162 C 220.280 235.162,219.865 235.541,219.409 236.006 M197.274 259.306 L 196.249 260.384 197.328 259.359 C 198.329 258.407,198.492 258.228,198.353 258.228 C 198.323 258.228,197.838 258.713,197.274 259.306 M193.618 263.150 L 192.499 264.323 193.671 263.203 C 194.316 262.588,194.843 262.060,194.843 262.031 C 194.843 261.893,194.658 262.062,193.618 263.150 M190.055 266.901 L 188.936 268.073 190.108 266.954 C 190.752 266.338,191.280 265.811,191.280 265.782 C 191.280 265.643,191.095 265.812,190.055 266.901 M163.983 294.280 L 163.432 294.890 164.041 294.339 C 164.376 294.036,164.651 293.762,164.651 293.730 C 164.651 293.585,164.496 293.712,163.983 294.280 M160.988 297.468 L 159.869 298.640 161.041 297.521 C 161.685 296.905,162.213 296.378,162.213 296.349 C 162.213 296.210,162.028 296.380,160.988 297.468 M157.237 301.406 L 156.118 302.579 157.290 301.459 C 157.935 300.844,158.462 300.316,158.462 300.287 C 158.462 300.149,158.277 300.318,157.237 301.406 M153.674 305.157 L 152.555 306.329 153.727 305.210 C 154.372 304.594,154.899 304.067,154.899 304.038 C 154.899 303.899,154.714 304.068,153.674 305.157 " stroke="none" fill="#044498" fill-rule="evenodd"></path><path id="path0" d="M314.721 76.184 C 307.475 83.430,301.547 89.444,301.547 89.547 C 301.547 89.792,310.212 98.453,310.457 98.453 C 310.702 98.453,336.990 72.161,336.990 71.915 C 336.990 71.670,328.326 63.010,328.081 63.010 C 327.978 63.010,321.966 68.938,314.721 76.184 M224.451 92.358 C 219.507 98.211,219.891 97.508,221.331 98.061 C 237.681 104.347,251.286 120.729,254.950 138.541 C 256.089 144.077,256.039 142.740,256.154 171.169 L 256.259 197.283 262.602 190.618 L 268.945 183.953 268.862 164.504 C 268.774 143.777,268.753 143.261,267.785 137.837 C 264.317 118.406,252.493 101.210,235.607 91.041 C 233.845 89.980,228.967 87.389,228.731 87.389 C 228.686 87.389,226.760 89.625,224.451 92.358 M137.412 194.387 L 131.083 201.753 131.083 228.959 L 131.083 256.165 130.357 256.165 C 122.403 256.165,114.770 262.673,112.768 271.163 C 112.386 272.782,112.187 286.170,112.500 289.162 C 113.468 298.408,120.263 305.273,129.395 306.230 C 130.376 306.332,135.981 306.410,141.866 306.403 L 152.555 306.390 158.533 300.077 L 164.512 293.765 147.188 293.671 L 129.864 293.577 128.824 293.089 C 127.340 292.393,126.492 291.570,125.789 290.142 L 125.176 288.896 125.176 281.204 C 125.176 271.928,125.393 271.173,128.544 269.510 L 129.489 269.011 158.854 268.917 L 188.219 268.823 194.203 262.541 L 200.188 256.259 190.764 256.210 L 181.341 256.162 181.341 234.410 L 181.341 212.658 182.462 212.658 L 183.584 212.658 186.118 217.704 C 189.457 224.355,190.356 225.177,194.093 224.993 C 196.584 224.870,196.760 224.740,203.187 218.297 L 208.812 212.658 213.734 212.658 L 218.656 212.658 218.705 224.690 L 218.753 236.721 225.076 230.081 L 231.400 223.441 231.406 214.620 C 231.412 204.754,231.370 204.343,230.166 202.583 C 228.379 199.969,228.039 199.906,215.659 199.906 C 202.445 199.906,204.100 199.448,198.969 204.529 L 195.499 207.965 194.149 205.295 C 192.497 202.031,192.000 201.412,190.387 200.618 L 189.132 200.000 181.656 199.945 C 172.371 199.877,171.560 200.058,169.834 202.583 C 168.524 204.498,168.589 203.029,168.589 230.982 L 168.589 256.165 156.212 256.165 L 143.836 256.165 143.789 221.593 L 143.741 187.022 137.412 194.387 " stroke="none" fill="#048b2c" fill-rule="evenodd"></path><path id="path1" d="M193.718 31.224 L 193.718 50.070 200.000 50.070 L 206.282 50.070 206.282 31.224 L 206.282 12.377 200.000 12.377 L 193.718 12.377 193.718 31.224 M67.229 67.323 L 62.730 71.825 76.091 85.186 L 89.451 98.546 93.952 94.045 L 98.453 89.544 85.090 76.183 L 71.728 62.821 67.229 67.323 M195.030 81.310 C 194.669 81.351,193.446 81.477,192.311 81.590 C 160.727 84.735,135.488 110.035,131.521 142.526 C 130.996 146.824,130.913 201.657,131.432 201.125 C 131.633 200.919,134.502 197.592,137.807 193.732 L 143.817 186.715 143.886 165.884 C 143.960 143.267,143.930 143.988,145.050 138.541 C 151.827 105.593,187.184 85.626,218.563 97.025 C 219.284 97.287,219.938 97.437,220.017 97.358 C 220.096 97.279,222.050 94.985,224.361 92.261 L 228.561 87.307 227.191 86.703 C 221.986 84.407,214.879 82.485,208.533 81.656 C 206.323 81.368,196.713 81.122,195.030 81.310 M194.093 100.251 C 169.608 103.175,151.416 122.847,149.930 148.008 L 149.811 150.023 156.159 150.023 L 162.508 150.023 162.735 147.257 C 164.223 129.109,178.786 114.180,196.343 112.803 C 197.117 112.743,198.277 112.647,198.922 112.590 L 200.094 112.488 200.094 106.220 L 200.094 99.953 198.172 99.973 C 197.114 99.984,195.279 100.109,194.093 100.251 M12.377 200.000 L 12.377 206.282 31.224 206.282 L 50.070 206.282 50.070 200.000 L 50.070 193.718 31.224 193.718 L 12.377 193.718 12.377 200.000 " stroke="none" fill="#db0434" fill-rule="evenodd"></path><path id="path2" d="M262.494 190.835 L 256.165 197.496 256.165 226.830 L 256.165 256.165 243.789 256.165 L 231.413 256.165 231.365 239.896 L 231.317 223.628 224.988 230.283 L 218.659 236.937 218.659 246.551 L 218.659 256.165 209.509 256.165 L 200.359 256.165 194.349 262.494 L 188.340 268.823 229.426 268.917 L 270.511 269.011 271.456 269.510 C 274.607 271.173,274.824 271.928,274.824 281.204 L 274.824 288.896 274.211 290.142 C 273.508 291.570,272.660 292.393,271.176 293.089 L 270.136 293.577 217.374 293.671 L 164.612 293.765 158.644 300.047 L 152.676 306.329 160.632 306.378 L 168.589 306.427 168.589 334.554 L 168.589 362.682 174.965 362.682 L 181.341 362.682 181.341 334.552 L 181.341 306.423 200.000 306.423 L 218.659 306.423 218.659 347.023 L 218.659 387.623 225.035 387.623 L 231.411 387.623 231.411 347.023 L 231.411 306.423 250.117 306.420 C 261.190 306.418,269.550 306.340,270.605 306.230 C 279.737 305.273,286.532 298.408,287.500 289.162 C 287.813 286.170,287.614 272.782,287.232 271.163 C 285.230 262.673,277.597 256.165,269.643 256.165 L 268.918 256.165 268.871 220.170 L 268.823 184.175 262.494 190.835 M349.930 200.000 L 349.930 206.282 368.776 206.282 L 387.623 206.282 387.623 200.000 L 387.623 193.718 368.776 193.718 L 349.930 193.718 349.930 200.000 " stroke="none" fill="#0404fb" fill-rule="evenodd"></path><path id="path3" d="" stroke="none" fill="#b00444" fill-rule="evenodd"></path><path id="path4" d="M266.380 186.639 L 265.260 187.811 266.432 186.691 C 267.077 186.076,267.604 185.548,267.604 185.519 C 267.604 185.381,267.419 185.550,266.380 186.639 M262.722 190.483 L 261.697 191.561 262.775 190.536 C 263.777 189.584,263.940 189.405,263.800 189.405 C 263.771 189.405,263.286 189.890,262.722 190.483 M259.066 194.327 L 257.947 195.499 259.119 194.380 C 260.207 193.340,260.376 193.155,260.238 193.155 C 260.209 193.155,259.681 193.683,259.066 194.327 M229.999 224.895 L 228.880 226.067 230.052 224.947 C 231.140 223.908,231.309 223.722,231.171 223.722 C 231.142 223.722,230.614 224.250,229.999 224.895 M226.341 228.739 L 225.316 229.817 226.395 228.792 C 227.397 227.840,227.559 227.661,227.420 227.661 C 227.390 227.661,226.905 228.146,226.341 228.739 M222.685 232.583 L 221.566 233.755 222.738 232.636 C 223.383 232.020,223.910 231.493,223.910 231.464 C 223.910 231.325,223.725 231.494,222.685 232.583 M219.409 236.006 C 218.954 236.470,218.623 236.850,218.675 236.850 C 218.726 236.850,219.141 236.470,219.597 236.006 C 220.052 235.541,220.383 235.162,220.331 235.162 C 220.280 235.162,219.865 235.541,219.409 236.006 M197.274 259.306 L 196.249 260.384 197.328 259.359 C 198.329 258.407,198.492 258.228,198.353 258.228 C 198.323 258.228,197.838 258.713,197.274 259.306 M193.618 263.150 L 192.499 264.323 193.671 263.203 C 194.316 262.588,194.843 262.060,194.843 262.031 C 194.843 261.893,194.658 262.062,193.618 263.150 M190.055 266.901 L 188.936 268.073 190.108 266.954 C 190.752 266.338,191.280 265.811,191.280 265.782 C 191.280 265.643,191.095 265.812,190.055 266.901 M163.983 294.280 L 163.432 294.890 164.041 294.339 C 164.376 294.036,164.651 293.762,164.651 293.730 C 164.651 293.585,164.496 293.712,163.983 294.280 M160.988 297.468 L 159.869 298.640 161.041 297.521 C 161.685 296.905,162.213 296.378,162.213 296.349 C 162.213 296.210,162.028 296.380,160.988 297.468 M157.237 301.406 L 156.118 302.579 157.290 301.459 C 157.935 300.844,158.462 300.316,158.462 300.287 C 158.462 300.149,158.277 300.318,157.237 301.406 M153.674 305.157 L 152.555 306.329 153.727 305.210 C 154.372 304.594,154.899 304.067,154.899 304.038 C 154.899 303.899,154.714 304.068,153.674 305.157 " stroke="none" fill="#044498" fill-rule="evenodd"></path></g></svg>