<?xml version="1.0" standalone="no"?>
<!DOCTYPE svg PUBLIC "-//W3C//DTD SVG 20010904//EN"
 "http://www.w3.org/TR/2001/REC-SVG-20010904/DTD/svg10.dtd">
<svg version="1.0" xmlns="http://www.w3.org/2000/svg"
 width="2133.000000pt" height="2133.000000pt" viewBox="0 0 2133.000000 2133.000000"
 preserveAspectRatio="xMidYMid meet">

<g transform="translate(0.000000,2133.000000) scale(0.100000,-0.100000)"
fill="#000000" stroke="none">
<path d="M10330 19660 l0 -1000 335 0 335 0 0 1000 0 1000 -335 0 -335 0 0
-1000z"/>
<path d="M3590 17735 l-235 -235 708 -708 707 -707 235 235 235 235 -708 708
-707 707 -235 -235z"/>
<path d="M16792 17257 l-702 -702 233 -233 232 -232 705 705 705 705 -230 230
c-126 126 -232 230 -235 230 -3 0 -321 -316 -708 -703z"/>
<path d="M10418 16990 c-898 -67 -1710 -436 -2340 -1063 -296 -295 -519 -607
-703 -982 -189 -386 -281 -696 -353 -1180 -14 -99 -16 -404 -19 -3106 l-3
-2996 -88 -6 c-118 -8 -228 -39 -347 -97 -268 -130 -454 -356 -533 -650 -25
-94 -26 -101 -30 -515 -2 -265 0 -454 7 -512 45 -379 309 -704 674 -829 153
-53 179 -54 1290 -54 l1027 0 0 -1500 0 -1500 335 0 335 0 0 1500 0 1500 995
0 995 0 0 -2165 0 -2165 335 0 335 0 0 2165 0 2165 1044 0 c1154 0 1135 -1
1307 64 141 53 240 118 354 231 113 114 178 213 231 354 61 162 66 217 62 729
-4 439 -5 460 -27 537 -29 104 -98 250 -158 334 -158 221 -434 385 -683 406
-36 4 -80 8 -97 11 l-33 5 -3 2977 c-3 3247 1 3013 -57 3342 -265 1496 -1480
2699 -2985 2955 -257 43 -628 63 -867 45z m636 -684 c744 -104 1393 -453 1880
-1011 366 -420 619 -971 700 -1525 36 -247 37 -340 30 -3247 l-7 -2853 -663 0
-664 0 -2 1373 -3 1372 -22 47 c-29 63 -96 134 -158 166 l-50 27 -590 0 c-557
0 -593 -1 -640 -19 -41 -16 -86 -55 -247 -214 l-196 -194 -76 150 c-64 126
-86 159 -132 201 -89 82 -93 82 -571 79 l-408 -3 -50 -27 c-62 -32 -129 -103
-158 -166 l-22 -47 -3 -1378 -2 -1377 -668 2 -667 3 -2 1385 c-2 762 1 2112 6
3000 9 1572 10 1618 30 1740 65 388 188 734 372 1047 440 748 1163 1266 1999
1433 80 16 190 34 245 39 55 6 116 13 135 15 77 9 501 -4 604 -18z m-1127
-6571 c92 -182 143 -273 172 -303 92 -97 242 -124 367 -68 53 24 98 65 364
331 l305 305 269 0 269 0 -7 -1162 c-4 -640 -9 -1164 -9 -1164 -1 -1 -450 -3
-997 -5 l-995 -4 -3 1168 -2 1168 67 -3 68 -3 132 -260z m4493 -2751 c103 -30
184 -105 220 -202 19 -49 20 -79 20 -447 0 -337 -2 -401 -16 -442 -33 -96
-110 -174 -204 -206 -40 -13 -496 -15 -3780 -18 l-3735 -4 -56 26 c-79 37
-133 90 -171 167 l-33 67 -3 377 c-3 321 -1 387 13 440 31 123 110 206 230
244 32 10 788 13 3751 13 3378 1 3715 0 3764 -15z"/>
<path d="M10500 15993 c-452 -28 -921 -185 -1307 -439 -202 -134 -457 -366
-607 -554 -351 -440 -555 -980 -583 -1537 l-6 -133 336 0 337 0 0 88 c0 230
75 527 194 777 314 654 963 1090 1683 1132 l113 6 0 334 0 333 -52 -2 c-29 -1
-78 -3 -108 -5z"/>
<path d="M670 10665 l0 -335 1000 0 1000 0 0 335 0 335 -1000 0 -1000 0 0
-335z"/>
<path d="M18660 10665 l0 -335 1000 0 1000 0 0 335 0 335 -1000 0 -1000 0 0
-335z"/>
</g>
</svg>
